<svg xmlns="http://www.w3.org/2000/svg" viewBox="0 0 368 182" width="368" height="182" role="img" aria-label="OTRI"><title>OTRI</title><path d="M115.71511627906978 85.62790697674419Q115.71511627906978 105.25 104.15988372093024 115.49709302325581Q92.6046511627907 125.74418604651163 72.40116279069767 125.74418604651163Q52.19767441860465 125.74418604651163 40.71511627906977 115.56976744186046Q29.232558139534884 105.3953488372093 29.232558139534884 85.62790697674419Q29.232558139534884 65.86046511627907 40.71511627906977 55.68604651162791Q52.19767441860465 45.51162790697674 72.40116279069767 45.51162790697674Q92.6046511627907 45.51162790697674 104.15988372093024 55.758720930232556Q115.71511627906978 66.00581395348837 115.71511627906978 85.62790697674419ZM58.156976744186046 81.55813953488372V89.84302325581396Q58.156976744186046 106.12209302325581 72.40116279069767 106.12209302325581Q86.79069767441861 106.12209302325581 86.79069767441861 89.84302325581396V81.55813953488372Q86.79069767441861 65.13372093023256 72.40116279069767 65.13372093023256Q58.156976744186046 65.13372093023256 58.156976744186046 81.55813953488372Z M174.29069767441862 47.25581395348837V66.87790697674419H158.01162790697674V96.09302325581396Q158.01162790697674 101.32558139534883 159.75581395348837 103.72383720930233Q161.5 106.12209302325581 166.1511627906977 106.12209302325581H174.29069767441862V123.12790697674419Q170.80232558139537 124.29069767441861 165.27906976744185 125.01744186046511Q159.75581395348837 125.74418604651163 155.68604651162792 125.74418604651163Q142.89534883720933 125.74418604651163 135.99127906976747 121.09302325581396Q129.0872093023256 116.44186046511628 129.0872093023256 105.25V66.87790697674419H118.33139534883722V47.25581395348837H130.25L136.5 24.0H158.01162790697674V47.25581395348837Z M236.35465116279073 47.11046511627906V71.38372093023256H227.05232558139537Q218.04069767441862 71.38372093023256 214.0436046511628 76.03488372093022Q210.046511627907 80.68604651162791 210.046511627907 89.84302325581396V124.0H181.12209302325584V47.25581395348837H204.8139534883721L206.70348837209303 58.883720930232556Q209.3197674418605 52.19767441860465 214.9883720930233 48.781976744186046Q220.65697674418607 45.366279069767444 227.77906976744188 45.366279069767444Q231.12209302325584 45.366279069767444 233.7383720930233 46.1656976744186Q236.35465116279073 46.96511627906976 236.35465116279073 47.11046511627906Z M240.13372093023258 124.0V47.25581395348837H269.05813953488376V124.0Z" fill="#ffffff"/><path d="M254.60 -5.36L277.85 32.43H231.34Z" fill="#ffffff"/><g transform="translate(287.52 -9.72) scale(3.9971)" fill="none" stroke="#ffffff" stroke-width="2.2" stroke-linecap="round" stroke-linejoin="round"><path d="M2.4 9.6 9.6 2.4"/><path d="M4 2.4h5.6V8"/></g></svg>
