<svg xmlns="http://www.w3.org/2000/svg" viewBox="0 0 305 48" width="305" height="48" role="img" aria-label="OTRI — Open Trail Running Index"><title>OTRI — Open Trail Running Index</title><path d="M24 2C10 2 1 11 1 24s9 22 23 22 23-9 23-22S38 2 24 2Zm0 10c8 0 12 5 12 12s-4 12-12 12-12-5-12-12 4-12 12-12Z" fill="#21152f" fill-rule="evenodd"/><path d="M53 3h43v10H80v32H69V13H53Z" fill="#21152f" fill-rule="evenodd"/><path d="M104 3h21c14 0 20 6 20 15 0 7-4 12-10 14l13 13h-14l-12-12h-7v12h-11V3Zm11 10v11h10c6 0 9-2 9-6s-3-5-9-5h-10Z" fill="#21152f" fill-rule="evenodd"/><path d="M159 3h11v42h-11Z" fill="#21152f" fill-rule="evenodd"/><path d="M197 8v32" stroke="#6336b6" stroke-opacity=".4"/><text x="215" y="21" font-family="Arial,sans-serif" font-size="12" fill="#6336b6">Open Trail</text><text x="215" y="37" font-family="Arial,sans-serif" font-size="12" fill="#6336b6">Running Index</text></svg>
